<svg width="30" height="30" viewBox="0 0 30 30" fill="none" xmlns="http://www.w3.org/2000/svg">
<g clip-path="url(#clip0_10201_752)">
<path d="M28.6556 26.656C28.4268 26.4272 28.0559 26.4272 27.8269 26.656C27.5981 26.8848 27.5981 27.2558 27.8269 27.4847L27.9986 27.6563H2.34282V2.00057L2.51444 2.17219C2.62887 2.28656 2.77881 2.34375 2.92875 2.34375C3.0787 2.34375 3.22864 2.2865 3.34307 2.17213C3.57188 1.94332 3.57188 1.5723 3.34307 1.34344L2.1712 0.171563C1.94233 -0.0571875 1.57143 -0.0571875 1.3425 0.171563L0.17063 1.34344C-0.0581787 1.57225 -0.0581787 1.94326 0.17063 2.17213C0.399497 2.40088 0.770395 2.40088 0.999321 2.17213L1.17094 2.00057V6.5625H0.585005C0.26145 6.5625 -0.000932617 6.82488 -0.000932617 7.14844C-0.000932617 7.47199 0.26145 7.73438 0.585005 7.73438H1.17094V10.0781H0.585005C0.26145 10.0781 -0.000932617 10.3405 -0.000932617 10.6641C-0.000932617 10.9876 0.26145 11.25 0.585005 11.25H1.17094V13.5938H0.585005C0.26145 13.5938 -0.000932617 13.8561 -0.000932617 14.1797C-0.000932617 14.5032 0.26145 14.7656 0.585005 14.7656H1.17094V17.1094H0.585005C0.26145 17.1094 -0.000932617 17.3718 -0.000932617 17.6953C-0.000932617 18.0189 0.26145 18.2813 0.585005 18.2813H1.17094V20.625H0.585005C0.26145 20.625 -0.000932617 20.8874 -0.000932617 21.2109C-0.000932617 21.5345 0.26145 21.7969 0.585005 21.7969H1.17094V24.1406H0.585005C0.26145 24.1406 -0.000932617 24.403 -0.000932617 24.7266C-0.000932617 25.0501 0.26145 25.3125 0.585005 25.3125H1.17094V27.6563H0.585005C0.26145 27.6563 -0.000932617 27.9186 -0.000932617 28.2422C-0.000932617 28.5657 0.26145 28.8281 0.585005 28.8281H1.17094V29.4141C1.17094 29.7376 1.43333 30 1.75688 30C2.08043 30 2.34282 29.7376 2.34282 29.4141V28.8281H4.68657V29.4141C4.68657 29.7376 4.94895 30 5.2725 30C5.59606 30 5.85844 29.7376 5.85844 29.4141V28.8281H8.20219V29.4141C8.20219 29.7376 8.46458 30 8.78813 30C9.11168 30 9.37407 29.7376 9.37407 29.4141V28.8281H11.7178V29.4141C11.7178 29.7376 11.9802 30 12.3038 30C12.6273 30 12.8897 29.7376 12.8897 29.4141V28.8281H15.2334V29.4141C15.2334 29.7376 15.4958 30 15.8194 30C16.1429 30 16.4053 29.7376 16.4053 29.4141V28.8281H18.7491V29.4141C18.7491 29.7376 19.0115 30 19.335 30C19.6586 30 19.9209 29.7376 19.9209 29.4141V28.8281H22.2647V29.4141C22.2647 29.7376 22.5271 30 22.8506 30C23.1742 30 23.4366 29.7376 23.4366 29.4141V28.8281H27.9985L27.8269 28.9997C27.5981 29.2286 27.5981 29.5996 27.8269 29.8284C28.0558 30.0572 28.4266 30.0572 28.6556 29.8284L29.8274 28.6566C30.0563 28.4278 30.0563 28.0567 29.8274 27.8279L28.6556 26.656Z" fill="#118BDD"/>
<path d="M14.6484 10.0781C14.972 10.0781 15.2344 9.81579 15.2344 9.49219C15.2344 9.16858 14.972 8.90625 14.6484 8.90625C14.3248 8.90625 14.0625 9.16858 14.0625 9.49219C14.0625 9.81579 14.3248 10.0781 14.6484 10.0781Z" fill="#118BDD"/>
<path d="M18.1641 0H14.6484C14.3249 0 14.0625 0.262383 14.0625 0.585938V6.85547C14.0625 7.17902 14.3249 7.44141 14.6484 7.44141C14.972 7.44141 15.2344 7.17902 15.2344 6.85547V1.17188H17.5781V25.3125H15.2344V12.1289C15.2344 11.8054 14.972 11.543 14.6484 11.543C14.3249 11.543 14.0625 11.8054 14.0625 12.1289V19.4531H11.7187V8.32031C11.7187 7.99676 11.4564 7.73438 11.1328 7.73438H7.61719C7.29363 7.73438 7.03125 7.99676 7.03125 8.32031V12.4219H4.10156C3.77801 12.4219 3.51562 12.6843 3.51562 13.0078V25.8984C3.51562 26.222 3.77801 26.4844 4.10156 26.4844H25.1953C25.5189 26.4844 25.7812 26.222 25.7812 25.8984V20.0391C25.7812 19.7155 25.5189 19.4531 25.1953 19.4531H22.2656V13.0078C22.2656 12.6843 22.0032 12.4219 21.6797 12.4219H18.75V0.585938C18.75 0.262383 18.4877 0 18.1641 0ZM7.03125 25.3125H4.6875V13.5938H7.03125V25.3125ZM10.5469 25.3125H8.20312V8.90625H10.5469V25.3125ZM14.0625 25.3125H11.7187V20.625H14.0625V25.3125ZM22.2656 20.625H24.6094V25.3125H22.2656V20.625ZM21.0937 13.5938V25.3125H18.75V13.5938H21.0937Z" fill="#118BDD"/>
</g>
<defs>
<clipPath id="clip0_10201_752">
<rect width="30" height="30" fill="white"/>
</clipPath>
</defs>
</svg>
